<svg width="152" height="50" viewBox="0 0 152 50" fill="none" xmlns="http://www.w3.org/2000/svg">
<path d="M143.579 0H8.3734C3.7489 0 0 3.7489 0 8.3734V41.6266C0 46.2511 3.7489 50 8.3734 50H143.579C148.204 50 151.952 46.2511 151.952 41.6266V8.3734C151.952 3.7489 148.204 0 143.579 0Z" fill="#1E1E1E"/>
<path d="M34.4614 20.655C32.4675 22.073 31.3278 23.9061 31.4904 26.3687C31.6512 28.8312 32.9897 30.5139 35.1842 31.6051C35.1237 31.8178 35.0822 32.0184 35.0113 32.2086C34.5841 33.3673 34.0187 34.4567 33.3148 35.4736C32.7493 36.2933 32.1908 37.1113 31.4766 37.8186C30.3179 38.9651 28.9777 39.2037 27.4697 38.6867C27.0512 38.5431 26.65 38.3564 26.235 38.2025C24.9795 37.7373 23.724 37.7563 22.4719 38.2232C21.9808 38.4065 21.4983 38.6175 21.002 38.787C19.9765 39.1398 18.9787 39.1017 18.0777 38.448C17.6558 38.1419 17.2459 37.7978 16.9035 37.407C15.6532 35.9716 14.6052 34.4031 13.8789 32.6323C13.2789 31.171 12.8085 29.6717 12.6338 28.0963C12.5612 27.4391 12.4799 26.7768 12.4937 26.1179C12.5318 24.399 12.8604 22.7406 13.7994 21.262C14.9338 19.479 16.5248 18.3792 18.6398 18.0472C19.871 17.8535 20.9934 18.1734 22.1071 18.623C22.465 18.7683 22.8299 18.898 23.1913 19.0346C23.7447 19.2456 24.2929 19.2439 24.8463 19.026C25.3599 18.8219 25.8805 18.6369 26.3941 18.4328C28.158 17.7272 29.9236 17.7065 31.6875 18.419C32.6525 18.8081 33.4774 19.4012 34.138 20.2106C34.2417 20.3385 34.3317 20.4769 34.4614 20.655Z" fill="white"/>
<path d="M29.3402 11.2422C29.8278 14.3066 26.9226 17.9243 23.8305 17.5802C23.8098 17.4055 23.7527 17.217 23.7683 17.0337C23.9308 15.064 24.7972 13.4799 26.4141 12.3299C27.1059 11.8371 27.8685 11.4808 28.7055 11.3079C28.9148 11.2647 29.1326 11.2629 29.3402 11.2422Z" fill="white"/>
<path d="M100.438 26.8513H98.0688C98.0325 26.7354 97.9927 26.6334 97.972 26.5279C97.78 25.6114 97.2145 24.9888 96.3706 24.6568C95.148 24.176 93.9167 24.2037 92.7165 24.7744C92.3344 24.9559 92.0231 25.224 91.7879 25.5785C91.174 26.502 91.3763 27.5638 92.2859 28.195C92.7598 28.5235 93.2941 28.712 93.8423 28.8556C94.8298 29.1167 95.8259 29.3484 96.8133 29.613C97.5362 29.8067 98.2296 30.0782 98.8712 30.4725C100.03 31.185 100.647 32.1984 100.697 33.5732C100.754 35.0794 100.286 36.3453 99.1081 37.312C98.3317 37.9501 97.4134 38.2787 96.4415 38.4827C95.5544 38.6678 94.6551 38.6972 93.7611 38.6245C92.3586 38.5104 91.0477 38.1127 89.9704 37.146C89.1092 36.373 88.6405 35.3976 88.5108 34.2528C88.5039 34.1975 88.5022 34.1421 88.5056 34.0868C88.5056 34.0608 88.5247 34.0366 88.5471 33.9813H90.9059C90.9993 34.2614 91.0599 34.5191 91.1705 34.7543C91.4438 35.3388 91.8865 35.7746 92.4641 36.0496C93.8596 36.7136 95.2829 36.7672 96.7113 36.1533C97.109 35.9821 97.4566 35.7262 97.7247 35.3803C98.4942 34.3894 98.2798 33.1149 97.2318 32.4266C96.7649 32.1205 96.253 31.9148 95.7135 31.7781C94.8159 31.5499 93.915 31.3389 93.0192 31.1123C92.1441 30.891 91.3002 30.5935 90.5462 30.0782C89.2977 29.2222 88.7979 28.0117 88.9155 26.5366C89.0434 24.9438 89.8943 23.8077 91.2639 23.0502C92.2375 22.5107 93.2976 22.2859 94.4078 22.2668C95.1722 22.253 95.9279 22.2876 96.6681 22.4899C97.9633 22.8427 99.0684 23.4808 99.7999 24.6464C100.211 25.3018 100.428 26.0212 100.438 26.853V26.8513Z" fill="white"/>
<path d="M57.2923 38.3995C56.4501 38.3995 55.6771 38.396 54.9059 38.4012C54.7122 38.4012 54.6499 38.2888 54.598 38.1297C54.4476 37.6697 54.2868 37.2149 54.1311 36.7566C53.8683 35.9854 53.6106 35.2123 53.346 34.4411C53.225 34.09 53.2232 34.0866 52.8462 34.0866C51.0892 34.0866 49.334 34.0866 47.577 34.09C47.1931 34.09 47.1879 34.0952 47.0564 34.4757C46.6846 35.5599 46.3163 36.646 45.9462 37.7302C45.8753 37.9395 45.794 38.1436 45.7093 38.3736H43.1914C43.2156 38.2629 43.2277 38.1574 43.2623 38.0623C43.8693 36.3866 44.4815 34.7143 45.0867 33.0386C45.8615 30.896 46.6328 28.7499 47.4058 26.6072C47.8554 25.3604 48.305 24.1118 48.7598 22.8667C48.8878 22.5174 48.8947 22.5174 49.2613 22.5139C49.8424 22.5087 50.4234 22.5018 51.0045 22.5104C51.6513 22.5191 51.5268 22.4413 51.7516 23.0517C52.3171 24.5805 52.8635 26.1178 53.4186 27.65C54.6568 31.0654 55.895 34.4826 57.1332 37.898C57.1834 38.0381 57.2249 38.1816 57.2958 38.3995H57.2923ZM52.528 32.0961C52.4191 31.458 50.3958 25.5869 50.1986 25.3085C49.9513 25.682 47.9073 31.7485 47.9194 32.0961H52.528Z" fill="white"/>
<path d="M73.9594 36.6652V42.135C73.6084 42.2457 72.0606 42.2612 71.5781 42.1661V26.853H73.8643V28.5771C73.9629 28.5304 74.0061 28.5235 74.0251 28.4975C75.2028 26.8893 76.818 26.4396 78.6874 26.8218C80.4651 27.185 81.5511 28.3748 82.0993 30.0505C82.6873 31.8403 82.67 33.6492 82.0129 35.42C81.4007 37.0698 80.2455 38.1576 78.4747 38.4394C77.1621 38.6487 75.9032 38.4602 74.85 37.5506C74.6217 37.3534 74.4384 37.1061 74.2361 36.8796C74.1669 36.8035 74.1047 36.7222 74.039 36.6427C74.013 36.6496 73.9854 36.6565 73.9594 36.6634V36.6652ZM73.9473 32.6116C73.9283 33.4002 74.0701 34.1576 74.4315 34.858C74.952 35.8714 75.7735 36.4801 76.9338 36.4905C78.0787 36.5009 78.9468 35.9786 79.5036 34.9635C79.808 34.4084 79.9602 33.81 80.0086 33.1823C80.0899 32.1309 79.9844 31.1106 79.4569 30.1698C78.862 29.1097 77.7743 28.629 76.7575 28.7241C75.6541 28.8278 74.8587 29.4245 74.3866 30.4344C74.0649 31.1227 73.9335 31.8524 73.9473 32.6099V32.6116Z" fill="white"/>
<path d="M61.1747 42.1953H58.7969V26.858H61.0882C61.0951 27.4286 61.1021 27.9837 61.1107 28.6288C61.2266 28.506 61.2767 28.4628 61.3148 28.4126C62.323 27.0741 63.6961 26.5726 65.3199 26.7265C67.3276 26.9168 68.6125 28.0719 69.2749 29.9137C69.9251 31.7174 69.9095 33.5643 69.2628 35.3628C68.6661 37.0212 67.5179 38.1522 65.7194 38.4323C64.1664 38.6744 62.7449 38.377 61.6485 37.1319C61.5171 36.9832 61.4012 36.8189 61.2767 36.6615C61.2473 36.6702 61.2179 36.6771 61.1868 36.6857C61.1816 38.5119 61.1764 40.3381 61.1712 42.1953H61.1747ZM67.2481 32.6927C67.2567 31.7018 67.1046 30.8112 66.584 30.0226C65.9684 29.0905 65.0761 28.6409 63.9779 28.7256C62.8885 28.8086 62.0878 29.4122 61.6382 30.4031C60.962 31.8938 60.9689 33.4121 61.6745 34.8872C62.1587 35.8989 63.0026 36.4713 64.1422 36.492C65.2905 36.5145 66.1569 35.9888 66.7155 34.9858C67.1219 34.256 67.2602 33.4588 67.2464 32.6944L67.2481 32.6927Z" fill="white"/>
<path d="M136.925 35.0155H139.131C139.118 35.1555 139.119 35.2749 139.092 35.3873C138.82 36.4335 138.179 37.2013 137.267 37.7513C136.51 38.2078 135.681 38.4378 134.798 38.5173C133.568 38.6297 132.403 38.4499 131.313 37.8602C130.256 37.2878 129.549 36.4024 129.146 35.287C128.482 33.4487 128.494 31.5949 129.243 29.7912C129.959 28.0636 131.284 27.0571 133.146 26.7683C134.137 26.6144 135.107 26.6939 136.046 27.026C137.535 27.55 138.46 28.6256 138.955 30.0973C139.285 31.0812 139.348 32.0964 139.271 33.1772C139.126 33.1876 138.983 33.2083 138.839 33.2083C136.475 33.2118 134.111 33.21 131.747 33.2135C131.557 33.2135 131.368 33.2291 131.189 33.236C130.998 34.3358 131.607 35.9493 133.151 36.4629C134.675 36.9696 136.107 36.4352 136.926 35.0172L136.925 35.0155ZM131.166 31.5222C133.077 31.5309 134.962 31.5482 136.845 31.5239C136.904 29.8984 135.764 28.674 134.139 28.6204C132.48 28.5668 131.251 29.8154 131.166 31.5205V31.5222Z" fill="white"/>
<path d="M109.295 32.6167C109.329 31.6742 109.426 30.7455 109.796 29.8618C110.51 28.1585 111.781 27.1433 113.583 26.7906C114.391 26.6315 115.207 26.6297 116.017 26.7854C118.104 27.19 119.437 28.4386 120.027 30.4654C120.442 31.8886 120.438 33.3239 120.036 34.7558C119.435 36.8898 117.781 38.2906 115.532 38.5016C114.664 38.5828 113.82 38.5327 112.994 38.2819C111.304 37.7718 110.222 36.6321 109.654 34.9806C109.392 34.2146 109.312 33.4191 109.293 32.6149L109.295 32.6167ZM117.888 32.6028C117.853 31.8039 117.767 30.9703 117.381 30.1973C116.404 28.2466 113.886 28.2709 112.781 29.4658C112.406 29.8705 112.146 30.3357 111.996 30.8597C111.671 31.9993 111.657 33.1493 111.977 34.2889C112.079 34.6555 112.257 35.0083 112.451 35.3386C112.992 36.2621 114.261 36.71 115.292 36.5336C116.511 36.3243 117.22 35.6015 117.601 34.4826C117.803 33.8894 117.87 33.2738 117.888 32.6028Z" fill="white"/>
<path d="M103.437 28.7085H101.785V26.8443C102.326 26.8288 102.857 26.8149 103.44 26.7976V24.1396H105.821C105.866 25.0112 105.816 25.888 105.856 26.8166H108.044C108.064 27.4703 108.076 28.0652 108.033 28.712H105.863C105.853 28.9212 105.837 29.0821 105.837 29.2429C105.837 31.1365 105.837 33.0284 105.842 34.922C105.842 35.1416 105.87 35.363 105.91 35.5774C106.012 36.136 106.401 36.4732 106.971 36.4974C107.302 36.5112 107.632 36.4991 107.978 36.4991C108.004 36.5735 108.042 36.6358 108.042 36.698C108.049 37.1546 108.042 37.6094 108.049 38.0659C108.052 38.2665 107.973 38.3737 107.769 38.3979C106.968 38.4913 106.171 38.5 105.38 38.3219C104.225 38.0607 103.563 37.3431 103.501 36.1585C103.437 34.9185 103.449 33.6734 103.438 32.43C103.43 31.3527 103.437 30.2736 103.435 29.1962C103.435 29.0596 103.435 28.923 103.435 28.7068L103.437 28.7085Z" fill="white"/>
<path d="M124.671 38.3807H122.328C122.238 38.059 122.203 27.6571 122.283 26.9343C122.568 26.8184 124.002 26.7924 124.536 26.9083V28.4803C124.569 28.4941 124.602 28.5079 124.636 28.5218C124.97 27.875 125.378 27.3009 126.06 27C126.736 26.6991 127.433 26.6178 128.183 26.8132V28.9697C128.015 28.9541 127.855 28.9472 127.697 28.9212C126.111 28.6601 124.695 29.5196 124.676 31.4357C124.657 33.357 124.673 35.2783 124.673 37.1978C124.673 37.5817 124.673 37.9639 124.673 38.3807H124.671Z" fill="white"/>
<path d="M45.0187 15.0173C46.6979 15.0173 47.9136 14.9429 49.2867 14.7008L49.3818 15.4185C47.9344 15.6935 46.6875 15.7575 44.9029 15.7575H44.1523V9.53534H48.5569V10.253H45.0187V15.0173ZM52.6036 13.0839H51.0402V18.1232H50.1739V8.62744H51.0402V12.3662H52.6036V13.0839Z" fill="white"/>
<path d="M61.9394 13.4333V14.1406H58.1574V16.0532H57.2806V14.1406H53.3516V13.4333H61.9394ZM54.3234 10.7719C54.3234 9.5994 55.6325 8.86963 57.6403 8.86963C59.648 8.86963 60.9571 9.59768 60.9571 10.7719C60.9571 11.9461 59.648 12.6724 57.6403 12.6724C55.6325 12.6724 54.3234 11.9444 54.3234 10.7719ZM55.3161 17.1721H60.9986V17.8898H54.4497V15.1229H55.3161V17.1721ZM55.2313 10.7719C55.2313 11.512 56.1928 11.9651 57.6403 11.9651C59.0877 11.9651 60.0492 11.5103 60.0492 10.7719C60.0492 10.0335 59.0981 9.56828 57.6403 9.56828C56.1825 9.56828 55.2313 10.0231 55.2313 10.7719Z" fill="white"/>
<path d="M71.5734 16.2227V16.93H62.9648V16.2227H66.8195V14.4381H64.0422V11.512H69.6625V10.0335H64.0215V9.32617H70.5064V12.2107H64.8982V13.7429H70.7295V14.4398H67.698V16.2245H71.5752L71.5734 16.2227Z" fill="white"/>
<path d="M81.1763 16.1071V16.8248H72.5781V16.1071H81.1763ZM80.1837 13.878H73.6762V9.49414H80.0886V10.2118H74.5323V13.169H80.1837V13.8763V13.878Z" fill="white"/>
<path d="M87.663 10.1493H89.9976V10.8463H84.4102V10.1493H86.7966V8.74514H87.663V10.1493ZM89.5532 13.8155C89.5532 15.1039 88.5917 15.991 87.2393 15.991C85.887 15.991 84.948 15.1039 84.948 13.8155C84.948 12.5272 85.9095 11.6297 87.2393 11.6297C88.5692 11.6297 89.5532 12.5375 89.5532 13.8155ZM88.73 13.8155C88.73 12.9595 88.1075 12.3473 87.2411 12.3473C86.3747 12.3473 85.7625 12.9595 85.7625 13.8155C85.7625 14.6715 86.3851 15.2733 87.2411 15.2733C88.0971 15.2733 88.73 14.6612 88.73 13.8155ZM93.3145 13.2552H91.7615V18.1042H90.8951V8.63965H91.7615V12.5272H93.3145V13.2552Z" fill="white"/>
<path d="M99.0729 9.65293C99.0729 12.3887 97.8157 14.7977 94.6683 16.3385L94.2031 15.6312C96.7487 14.4172 98.0163 12.5997 98.1961 10.3498H94.6372V9.65293H99.0729ZM101.85 8.62744V18.1024H100.984V8.62744H101.85Z" fill="white"/>
</svg>
