<svg width="152" height="50" viewBox="0 0 152 50" fill="none" xmlns="http://www.w3.org/2000/svg">
<path d="M143.579 0H8.3734C3.7489 0 0 3.74889 0 8.37339V41.6266C0 46.2511 3.7489 50 8.3734 50H143.579C148.204 50 151.952 46.2511 151.952 41.6266V8.37339C151.952 3.74889 148.204 0 143.579 0Z" fill="#1E1E1E"/>
<path d="M30.5948 20.814L13.7149 11.3874C12.973 10.9741 12.1239 11.1782 11.6172 11.7298L25.8807 25.5437L30.5965 20.814H30.5948Z" fill="url(#paint0_linear_3402_183)"/>
<path d="M11.6198 11.7319C11.3465 12.0294 11.1719 12.4254 11.1719 12.8837V38.2477C11.1719 38.8287 11.4503 39.313 11.8584 39.6173L25.8833 25.5458L11.6198 11.7319Z" fill="url(#paint1_linear_3402_183)"/>
<path d="M11.8555 39.6155C12.3656 39.9959 13.0816 40.0945 13.7162 39.74L30.7293 30.2391L25.8803 25.5439L11.8555 39.6155Z" fill="url(#paint2_linear_3402_183)"/>
<path d="M36.43 24.0703L30.5987 20.814L25.8828 25.5437L30.7318 30.2388L36.43 27.0568C37.599 26.4031 37.599 24.7205 36.43 24.0668V24.0703Z" fill="url(#paint3_linear_3402_183)"/>
<path d="M56.2726 24.9885C55.7953 25.4779 55.3543 25.9328 54.9082 26.391C54.5658 26.1645 54.2251 25.9051 53.8567 25.6976C50.5382 23.8316 46.367 25.8964 45.8828 29.694C45.5197 32.5371 47.4496 35.3662 50.6229 35.7069C52.2796 35.885 53.7772 35.4665 54.9964 34.256C55.6016 33.6542 55.8991 32.9106 56.0409 32.0892C56.0565 31.9975 56.0426 31.9024 56.0426 31.7554H51.2403V29.7805C51.5533 29.694 57.3483 29.6595 58.085 29.7407C58.1178 29.8652 58.1731 30.0053 58.187 30.1489C58.289 31.2764 58.2147 32.3901 57.829 33.4622C57.1079 35.4579 55.6985 36.7808 53.6942 37.4016C51.306 38.1401 49.0008 37.8461 46.9083 36.4505C45.1133 35.2521 43.9823 33.5729 43.6745 31.4078C43.3442 29.0819 44.0324 27.062 45.6476 25.3707C47.2006 23.7417 49.134 22.9652 51.3734 22.9929C53.1961 23.0154 54.8079 23.631 56.1654 24.8692C56.2156 24.9142 56.2553 24.9695 56.2761 24.9903L56.2726 24.9885Z" fill="white"/>
<path d="M87.3139 29.2551C87.3329 28.9836 87.345 28.7933 87.3571 28.61C87.6528 28.5114 88.7994 28.4907 89.3338 28.5772C89.3424 28.7691 89.3597 28.9714 89.3597 29.1738C89.3632 31.8819 89.3701 34.5918 89.3632 37.2999C89.3614 38.1801 89.1919 39.0309 88.789 39.823C88.2858 40.8139 87.4851 41.471 86.4354 41.7858C85.2387 42.1455 84.0299 42.1506 82.8643 41.6353C81.8717 41.1943 81.1264 40.4732 80.6197 39.51C80.5764 39.427 80.5522 39.3353 80.5021 39.2004C81.1039 38.9531 81.6867 38.7145 82.2971 38.4637C82.4026 38.6211 82.4925 38.7542 82.5825 38.8891C83.378 40.0893 84.585 40.3815 85.8059 39.9648C86.4302 39.7521 86.8625 39.3163 87.096 38.7006C87.3295 38.085 87.3813 37.4451 87.3122 36.7465C87.2274 36.7949 87.1669 36.8174 87.1219 36.8572C86.2331 37.6492 85.1886 37.9017 84.0386 37.6855C82.138 37.3293 80.8981 36.1879 80.2998 34.3739C79.691 32.5269 80.4208 30.3843 81.9962 29.1911C82.7571 28.6135 83.6131 28.2866 84.5591 28.2365C85.4428 28.1898 86.2521 28.4388 86.9611 28.9853C87.0562 29.0596 87.1513 29.1323 87.3122 29.2551H87.3139ZM82.2452 33.0025C82.2401 33.6787 82.4441 34.3237 82.8263 34.8235C83.9642 36.3124 86.2625 36.2502 87.1513 34.45C87.62 33.5006 87.6252 32.5252 87.1635 31.5741C86.3731 29.9485 84.4 29.613 83.1082 30.8737C82.5116 31.4565 82.2539 32.1793 82.2452 33.0025Z" fill="white"/>
<path d="M107.502 23.4688C107.718 23.4688 107.855 23.4688 107.993 23.4688C109.488 23.4688 110.98 23.4533 112.474 23.4688C113.821 23.4809 115.037 23.87 116.012 24.8436C116.797 25.627 117.192 26.5626 117.249 27.6936C117.37 30.0818 115.398 31.8906 113.313 32.1016C112.395 32.195 111.464 32.1639 110.541 32.1846C110.268 32.1916 109.994 32.1846 109.664 32.1846V37.4331C108.926 37.4695 108.244 37.4677 107.501 37.4262C107.49 32.7743 107.501 28.1518 107.504 23.4706L107.502 23.4688ZM109.683 30.2028C109.877 30.2028 110.013 30.2028 110.148 30.2028C110.992 30.2028 111.834 30.1959 112.678 30.2028C113.105 30.2063 113.496 30.0887 113.865 29.8864C114.949 29.2863 115.407 27.9634 114.887 26.8549C114.463 25.9504 113.723 25.461 112.725 25.4282C111.814 25.3988 110.9 25.4212 109.989 25.4264C109.887 25.4264 109.783 25.4593 109.685 25.4766V30.2046L109.683 30.2028Z" fill="white"/>
<path d="M127.891 31.9373C128.009 31.4116 127.755 31.0364 127.424 30.713C126.65 29.959 125.074 29.8898 124.287 30.5867C124.114 30.7406 123.974 30.9291 123.8 31.1246C123.201 30.8738 122.606 30.6231 121.991 30.3637C122.02 30.0818 122.174 29.8881 122.323 29.6961C122.909 28.9404 123.705 28.5133 124.623 28.3231C125.792 28.0809 126.938 28.1691 128.019 28.707C129.294 29.3399 129.998 30.3775 130.022 31.8059C130.053 33.6027 130.032 35.3995 130.03 37.1962C130.03 37.2637 130.013 37.3294 129.998 37.4366C129.323 37.4868 128.657 37.4989 127.96 37.4331C127.943 37.1305 127.928 36.8607 127.909 36.5374C127.813 36.6065 127.741 36.6394 127.694 36.693C126.968 37.549 126.008 37.8153 124.938 37.7427C123.999 37.6787 123.16 37.3449 122.487 36.6636C121.429 35.5879 121.386 33.8517 122.418 32.7588C123.023 32.1172 123.805 31.761 124.67 31.6088C125.711 31.4255 126.733 31.4773 127.72 31.8958C127.769 31.9166 127.824 31.9218 127.893 31.9373H127.891ZM125.449 35.8474C126.439 35.8992 127.547 35.1954 127.872 34.0437C127.967 33.7047 127.945 33.658 127.62 33.5076C126.989 33.217 126.318 33.1444 125.64 33.2188C125.147 33.2724 124.676 33.4297 124.274 33.7531C123.739 34.182 123.575 35.1798 124.478 35.6346C124.791 35.792 125.121 35.8785 125.449 35.8474Z" fill="white"/>
<path d="M102.872 31.8057C100.724 32.686 98.6093 33.5541 96.4978 34.4187C96.8886 35.8575 99.5812 36.7084 101.157 34.5726C101.689 34.922 102.224 35.273 102.786 35.6431C102.291 36.3625 101.698 36.9124 100.944 37.2548C99.1177 38.0849 97.3642 37.9327 95.7455 36.736C94.9345 36.136 94.3949 35.3111 94.1407 34.3305C93.743 32.7932 93.9332 31.3336 94.8895 30.0366C96.5842 27.7383 100.112 27.5429 101.926 29.938C102.341 30.4862 102.614 31.095 102.87 31.8057H102.872ZM100.365 31.0811C100.071 30.4863 99.6244 30.2303 99.0727 30.1231C97.7654 29.8689 96.4528 30.7923 96.1606 32.0997C96.1139 32.3038 96.1277 32.5217 96.1069 32.8156C97.563 32.2225 98.9344 31.6639 100.365 31.0811Z" fill="white"/>
<path d="M63.7944 37.7666C62.3106 37.7389 61.0343 37.2288 60.0694 36.0805C59.1943 35.0412 58.8346 33.8341 58.9747 32.4645C59.2445 29.8307 61.6448 27.9924 64.3391 28.2795C66.2794 28.4853 68.045 29.8013 68.5292 31.9042C69.048 34.1627 67.9395 36.4333 65.8471 37.3412C65.1916 37.6248 64.5103 37.77 63.7944 37.7666ZM66.5232 33.0438C66.5094 32.8605 66.5146 32.691 66.4817 32.5302C66.435 32.3002 66.3814 32.0702 66.2984 31.8523C65.7208 30.3218 63.9206 29.6681 62.4939 30.4688C61.1312 31.2332 60.6487 33.1476 61.4736 34.5241C62.2293 35.7882 63.6958 36.2448 64.9893 35.5911C66.0286 35.0654 66.4679 34.1558 66.5232 33.0438Z" fill="white"/>
<path d="M69.5343 32.968C69.4738 30.3792 71.5956 28.2452 74.3228 28.2383C76.9773 28.2314 79.2168 30.0904 79.2323 32.9905C79.2479 35.8836 77.0119 37.6199 74.6738 37.753C71.6752 37.9242 69.4374 35.6 69.5343 32.968ZM71.6648 33.0787C71.6665 33.1185 71.6648 33.243 71.6786 33.3657C71.8153 34.4742 72.379 35.2939 73.4201 35.6952C74.43 36.0843 75.3829 35.8836 76.1922 35.1504C77.1831 34.2546 77.3647 32.5495 76.6418 31.3788C76.0452 30.4121 74.7292 29.8293 73.5014 30.2651C72.3894 30.6594 71.6475 31.7315 71.6631 33.0787H71.6648Z" fill="white"/>
<path d="M135.014 34.552C135.215 34.0764 135.386 33.6856 135.545 33.2896C136.133 31.8283 136.724 30.3688 137.3 28.904C137.406 28.6325 137.541 28.5132 137.843 28.5236C138.478 28.5461 139.113 28.5305 139.825 28.5305C139.74 28.7605 139.687 28.9369 139.612 29.1064C138.819 30.9014 138.02 32.693 137.228 34.488C136.245 36.7119 135.27 38.941 134.284 41.1632C133.963 41.8878 134.091 41.7287 133.377 41.7425C132.88 41.7529 132.384 41.7443 131.822 41.7443C131.879 41.5783 131.908 41.4641 131.955 41.3604C132.536 40.0755 133.112 38.7889 133.709 37.5126C133.873 37.1633 133.89 36.871 133.722 36.5027C132.581 33.9848 131.467 31.4565 130.347 28.93C130.298 28.821 130.267 28.7051 130.219 28.5651C130.34 28.5478 130.418 28.5288 130.495 28.5288C131.049 28.527 131.602 28.5391 132.156 28.5253C132.401 28.5201 132.531 28.6118 132.619 28.8366C132.929 29.62 133.254 30.3982 133.577 31.1764C134.001 32.1967 134.428 33.217 134.855 34.2355C134.886 34.3099 134.928 34.3791 135.014 34.552Z" fill="white"/>
<path d="M120.513 37.44H118.468C118.362 37.1045 118.322 24.4165 118.416 23.5484C118.694 23.4481 119.74 23.4204 120.463 23.493C120.472 23.5017 120.481 23.512 120.489 23.5207C120.498 23.5311 120.513 23.5397 120.515 23.5518C120.526 23.6054 120.539 23.6608 120.539 23.7144C120.539 28.2072 120.539 32.6982 120.539 37.191C120.539 37.2584 120.526 37.3259 120.513 37.4383V37.44Z" fill="white"/>
<path d="M92.892 37.428H90.8981C90.8756 37.4072 90.8652 37.3986 90.8566 37.3882C90.8479 37.3778 90.8324 37.3675 90.8324 37.3554C90.822 37.1357 90.8047 36.9161 90.8047 36.6948C90.8099 32.3282 90.8151 27.9617 90.8237 23.5968C90.8237 23.5744 90.8479 23.5502 90.8773 23.5H92.8747C92.975 23.7974 92.9975 36.9369 92.8937 37.428H92.892Z" fill="white"/>
<path d="M45.4211 16.0808C47.1003 16.0808 48.316 16.0064 49.6891 15.7643L49.7842 16.482C48.3367 16.7569 47.0899 16.8192 45.3052 16.8192H44.5547V10.5971H48.9593V11.3148H45.4211V16.079V16.0808ZM53.0059 14.1474H51.4426V19.1866H50.5762V9.69092H51.4426V13.4297H53.0059V14.1474Z" fill="white"/>
<path d="M62.3417 14.497V15.2043H58.5597V17.1169H57.6829V15.2043H53.7539V14.497H62.3417ZM54.7258 11.8356C54.7258 10.6631 56.0349 9.93506 58.0426 9.93506C60.0504 9.93506 61.3595 10.6631 61.3595 11.8356C61.3595 13.0081 60.0504 13.7379 58.0426 13.7379C56.0349 13.7379 54.7258 13.0098 54.7258 11.8356ZM55.7184 18.2376H61.401V18.9552H54.852V16.1883H55.7184V18.2376ZM55.6337 11.8356C55.6337 12.5757 56.5952 13.0288 58.0426 13.0288C59.4901 13.0288 60.4516 12.574 60.4516 11.8356C60.4516 11.0972 59.5005 10.632 58.0426 10.632C56.5848 10.632 55.6337 11.0868 55.6337 11.8356Z" fill="white"/>
<path d="M71.9758 17.2847V17.992H63.3672V17.2847H67.2219V15.5001H64.4446V12.5741H70.0649V11.0955H64.4238V10.3882H70.9088V13.2727H65.3006V14.8049H71.1319V15.5018H68.1004V17.2865H71.9775L71.9758 17.2847Z" fill="white"/>
<path d="M81.5787 17.1686V17.8863H72.9805V17.1686H81.5787ZM80.586 14.9395H74.0803V10.5557H80.4927V11.2733H74.9363V14.2305H80.5878V14.9378L80.586 14.9395Z" fill="white"/>
<path d="M88.0615 11.2114H90.396V11.9083H84.8086V11.2114H87.1951V9.80715H88.0615V11.2114ZM89.9516 14.8775C89.9516 16.1659 88.9901 17.053 87.6378 17.053C86.2854 17.053 85.3464 16.1659 85.3464 14.8775C85.3464 13.5892 86.3079 12.6917 87.6378 12.6917C88.9676 12.6917 89.9516 13.5996 89.9516 14.8775ZM89.1285 14.8775C89.1285 14.0215 88.5059 13.4093 87.6395 13.4093C86.7731 13.4093 86.1609 14.0215 86.1609 14.8775C86.1609 15.7336 86.7835 16.3354 87.6395 16.3354C88.4955 16.3354 89.1285 15.7232 89.1285 14.8775ZM93.7129 14.3172H92.16V19.1663H91.2936V9.70166H92.16V13.5892H93.7129V14.3172Z" fill="white"/>
<path d="M99.4714 10.7147C99.4714 13.4505 98.2141 15.8594 95.0668 17.4003L94.6016 16.693C97.1471 15.479 98.4147 13.6615 98.5946 11.4116H95.0356V10.7147H99.4714ZM102.249 9.69092V19.1659H101.382V9.69092H102.249Z" fill="white"/>
<defs>
<linearGradient id="paint0_linear_3402_183" x1="16.0149" y1="13.0493" x2="30.6277" y2="25.1598" gradientUnits="userSpaceOnUse">
<stop stop-color="#21F98C"/>
<stop offset="0.99" stop-color="#1DF989"/>
</linearGradient>
<linearGradient id="paint1_linear_3402_183" x1="18.5267" y1="14.025" x2="18.5267" y2="37.3848" gradientUnits="userSpaceOnUse">
<stop stop-color="#3EEDFE"/>
<stop offset="0.99" stop-color="#34D3FF"/>
</linearGradient>
<linearGradient id="paint2_linear_3402_183" x1="28.3463" y1="27.863" x2="10.6691" y2="40.8519" gradientUnits="userSpaceOnUse">
<stop stop-color="#FD1842"/>
<stop offset="0.99" stop-color="#FF284E"/>
</linearGradient>
<linearGradient id="paint3_linear_3402_183" x1="25.8845" y1="25.5281" x2="37.3067" y2="25.5281" gradientUnits="userSpaceOnUse">
<stop stop-color="#FFB401"/>
<stop offset="0.99" stop-color="#FEDE01"/>
</linearGradient>
</defs>
</svg>
